# xmcd
#
# Track frame offsets: 
#        150
#        10710
#        20850
#        31000
#        41670
#        52847
#        65080
#        77940
#        89312
#        102095
#        113542
#        126252
#        136482
#        148007
#        159300
#        175017
#        187022
#        197952
#        208527
#        221212
#        233190
#        244790
#        256407
#        268230
#        278397
#        290740
#        301547
#        312057
#
# Disc length: 4353 seconds
#
# Revision: 4
# Processed by: cddbd v1.5.2PL0 Copyright (c) Steve Scherf et al.
# Submitted via: ExactAudioCopy v0.99pb3
#
DISCID=9010ff1c
DTITLE=The Impressions - Definitive Impressions
DYEAR=2002
DGENRE=Soul
TTITLE0=Gypsy Woman
TTITLE1=Grow Closer Together
TTITLE2=Little Young Lover
TTITLE3=Minstrel And Queen
TTITLE4=I'm The One Who Loves You
TTITLE5=Sad, Sad Girl And Boy
TTITLE6=It's All Right
TTITLE7=Talking About My Baby
TTITLE8=I'm So Proud
TTITLE9=Keep On Pushing
TTITLE10=I've Been Trying
TTITLE11=Girl You Don't Know Me
TTITLE12=I Made A Mistake
TTITLE13=You Must Believe Me
TTITLE14=Amen
TTITLE15=People Get Ready
TTITLE16=Woman's Got Soul
TTITLE17=Meeting Over Yonder
TTITLE18=I Need You
TTITLE19=Just One Kiss From You
TTITLE20=You've Been Cheatin'
TTITLE21=Since I Lost The One I Love
TTITLE22=Can't Satisfy
TTITLE23=You Always Hurt Me
TTITLE24=I Can't Stay Away From You
TTITLE25=We're A Winner
TTITLE26=We're Rolling On
TTITLE27=I Loved And I Lost
EXTD=YEAR: 2002
EXTT0=
EXTT1=
EXTT2=
EXTT3=
EXTT4=
EXTT5=
EXTT6=
EXTT7=
EXTT8=
EXTT9=
EXTT10=
EXTT11=
EXTT12=
EXTT13=
EXTT14=
EXTT15=
EXTT16=
EXTT17=
EXTT18=
EXTT19=
EXTT20=
EXTT21=
EXTT22=
EXTT23=
EXTT24=
EXTT25=
EXTT26=
EXTT27=
PLAYORDER=
